<svg width="32" height="32" viewBox="0 0 32 32" fill="none" xmlns="http://www.w3.org/2000/svg">
<path d="M16 16C19.7333 16 22.6666 13.0667 22.6666 9.33334C22.6666 5.60001 19.7333 2.66667 16 2.66667C12.2666 2.66667 9.33331 5.60001 9.33331 9.33334C9.33331 13.0667 12.2666 16 16 16ZM28.4 27.7333C26.6666 20.9333 19.7333 16.6667 12.9333 18.4C8.39997 19.6 4.79997 23.0667 3.59997 27.7333C3.46664 28.4 3.86664 29.2 4.66664 29.3333C4.79997 29.3333 4.93331 29.3333 4.93331 29.3333H27.0666C27.8666 29.3333 28.4 28.8 28.4 28C28.4 27.8667 28.4 27.7333 28.4 27.7333Z" fill="#A098AE"/>
</svg>
