<svg width="32" height="32" viewBox="0 0 32 32" fill="none" xmlns="http://www.w3.org/2000/svg">
<path d="M22.4 3.84H9.60003C8.07311 3.84237 6.60941 4.44998 5.52971 5.52968C4.45001 6.60938 3.8424 8.07308 3.84003 9.6V22.4C3.8424 23.9269 4.45001 25.3906 5.52971 26.4703C6.60941 27.55 8.07311 28.1576 9.60003 28.16H22.4C23.9269 28.1576 25.3906 27.55 26.4703 26.4703C27.55 25.3906 28.1577 23.9269 28.16 22.4V9.6C28.1577 8.07308 27.55 6.60938 26.4703 5.52968C25.3906 4.44998 23.9269 3.84237 22.4 3.84ZM23.3984 16.64H19.9936L17.8432 20.8768C17.7912 20.9814 17.7108 21.0693 17.6112 21.1304C17.5116 21.1915 17.3969 21.2234 17.28 21.2224H17.2416C17.1176 21.2181 16.9977 21.1768 16.8973 21.1038C16.797 21.0308 16.7207 20.9295 16.6784 20.8128L14.0928 14.144L12.9536 16.2944C12.9028 16.4 12.8227 16.4887 12.7228 16.55C12.623 16.6113 12.5076 16.6425 12.3904 16.64H8.60163C8.43189 16.64 8.2691 16.5726 8.14908 16.4525C8.02906 16.3325 7.96163 16.1697 7.96163 16C7.96163 15.8303 8.02906 15.6675 8.14908 15.5474C8.2691 15.4274 8.43189 15.36 8.60163 15.36H12.0064L13.6192 12.3136C13.674 12.2029 13.7604 12.1109 13.8675 12.0494C13.9746 11.9878 14.0976 11.9595 14.2208 11.968C14.3442 11.9746 14.4631 12.0168 14.563 12.0895C14.663 12.1622 14.7397 12.2622 14.784 12.3776L17.3568 19.0208L19.0336 15.7056C19.0906 15.6023 19.1739 15.5159 19.275 15.4552C19.3762 15.3944 19.4917 15.3616 19.6096 15.36H23.3984C23.5682 15.36 23.731 15.4274 23.851 15.5474C23.971 15.6675 24.0384 15.8303 24.0384 16C24.0384 16.1697 23.971 16.3325 23.851 16.4525C23.731 16.5726 23.5682 16.64 23.3984 16.64Z" fill="#A098AE"/>
</svg>
