<svg width="32" height="32" viewBox="0 0 32 32" fill="none" xmlns="http://www.w3.org/2000/svg">
<path d="M7.99998 5.33334C6.52722 5.33334 5.33331 6.52724 5.33331 8V12C5.33331 13.4728 6.52722 14.6667 7.99998 14.6667H12C13.4728 14.6667 14.6666 13.4728 14.6666 12V8C14.6666 6.52724 13.4728 5.33334 12 5.33334H7.99998ZM20 5.33334C18.5272 5.33334 17.3333 6.52724 17.3333 8V12C17.3333 13.4728 18.5272 14.6667 20 14.6667H24C25.4728 14.6667 26.6666 13.4728 26.6666 12V8C26.6666 6.52724 25.4728 5.33334 24 5.33334H20ZM5.33331 20C5.33331 18.5272 6.52722 17.3333 7.99998 17.3333H12C13.4728 17.3333 14.6666 18.5272 14.6666 20V24C14.6666 25.4728 13.4728 26.6667 12 26.6667H7.99998C6.52722 26.6667 5.33331 25.4728 5.33331 24V20ZM20 17.3333C18.5272 17.3333 17.3333 18.5272 17.3333 20V24C17.3333 25.4728 18.5272 26.6667 20 26.6667H24C25.4728 26.6667 26.6666 25.4728 26.6666 24V20C26.6666 18.5272 25.4728 17.3333 24 17.3333H20Z" fill="#A098AE"/>
</svg>
