<svg width="32" height="32" viewBox="0 0 32 32" fill="none" xmlns="http://www.w3.org/2000/svg">
<g clip-path="url(#clip0_1017_54)">
<path d="M27.3599 20.28L24.9599 17.8667V11.92C24.9919 9.71177 24.2238 7.56655 22.7974 5.88045C21.3711 4.19435 19.3829 3.08125 17.1999 2.74667C15.933 2.57982 14.6451 2.68509 13.4221 3.05544C12.1991 3.42578 11.0691 4.0527 10.1076 4.89435C9.14604 5.736 8.37506 6.77304 7.84608 7.93626C7.31709 9.09948 7.04227 10.3621 7.03994 11.64V17.8667L4.63993 20.28C4.33848 20.5865 4.13405 20.975 4.0522 21.3971C3.97036 21.8191 4.01473 22.2559 4.17977 22.6529C4.34481 23.0498 4.6232 23.3893 4.98014 23.6289C5.33707 23.8685 5.75671 23.9976 6.1866 24H10.6666V24.4533C10.7289 25.8069 11.3252 27.0806 12.3249 27.9954C13.3246 28.9101 14.6461 29.3912 15.9999 29.3333C17.3537 29.3912 18.6753 28.9101 19.675 27.9954C20.6747 27.0806 21.271 25.8069 21.3333 24.4533V24H25.8133C26.2432 23.9976 26.6628 23.8685 27.0197 23.6289C27.3767 23.3893 27.6551 23.0498 27.8201 22.6529C27.9851 22.2559 28.0295 21.8191 27.9477 21.3971C27.8658 20.975 27.6614 20.5865 27.3599 20.28ZM18.6666 24.4533C18.5927 25.0947 18.2741 25.6827 17.7774 26.0951C17.2806 26.5074 16.6439 26.7121 15.9999 26.6667C15.356 26.7121 14.7193 26.5074 14.2225 26.0951C13.7257 25.6827 13.4072 25.0947 13.3333 24.4533V24H18.6666V24.4533Z" fill="#A098AE"/>
</g>
<defs>
<clipPath id="clip0_1017_54">
<rect width="32" height="32" fill="white"/>
</clipPath>
</defs>
</svg>
