<svg width="40" height="40" viewBox="0 0 40 40" fill="none" xmlns="http://www.w3.org/2000/svg">
<g clip-path="url(#clip0_1019_103)">
<path d="M20 11.6667C18.251 11.6667 16.5463 12.217 15.1275 13.2396C13.7086 14.2623 12.6474 15.7055 12.0943 17.3648C11.5413 19.024 11.5243 20.8153 12.0458 22.4847C12.5673 24.1542 13.6008 25.6173 15 26.6667V33.3333C15 34.2174 15.3512 35.0652 15.9764 35.6904C16.6015 36.3155 17.4493 36.6667 18.3334 36.6667H21.6667C22.5508 36.6667 23.3986 36.3155 24.0237 35.6904C24.6489 35.0652 25 34.2174 25 33.3333V26.6667C26.3993 25.6173 27.4328 24.1542 27.9543 22.4847C28.4758 20.8153 28.4588 19.024 27.9057 17.3648C27.3526 15.7055 26.2915 14.2623 24.8726 13.2396C23.4537 12.217 21.7491 11.6667 20 11.6667ZM20 10C20.4421 10 20.866 9.8244 21.1786 9.51184C21.4911 9.19928 21.6667 8.77536 21.6667 8.33333V5C21.6667 4.55797 21.4911 4.13405 21.1786 3.82149C20.866 3.50893 20.4421 3.33333 20 3.33333C19.558 3.33333 19.1341 3.50893 18.8215 3.82149C18.509 4.13405 18.3334 4.55797 18.3334 5V8.33333C18.3334 8.77536 18.509 9.19928 18.8215 9.51184C19.1341 9.8244 19.558 10 20 10ZM35 18.3333H31.6667C31.2247 18.3333 30.8008 18.5089 30.4882 18.8215C30.1756 19.134 30 19.558 30 20C30 20.442 30.1756 20.8659 30.4882 21.1785C30.8008 21.4911 31.2247 21.6667 31.6667 21.6667H35C35.4421 21.6667 35.866 21.4911 36.1786 21.1785C36.4911 20.8659 36.6667 20.442 36.6667 20C36.6667 19.558 36.4911 19.134 36.1786 18.8215C35.866 18.5089 35.4421 18.3333 35 18.3333ZM8.33337 18.3333H5.00004C4.55801 18.3333 4.13409 18.5089 3.82153 18.8215C3.50897 19.134 3.33337 19.558 3.33337 20C3.33337 20.442 3.50897 20.8659 3.82153 21.1785C4.13409 21.4911 4.55801 21.6667 5.00004 21.6667H8.33337C8.7754 21.6667 9.19932 21.4911 9.51189 21.1785C9.82445 20.8659 10 20.442 10 20C10 19.558 9.82445 19.134 9.51189 18.8215C9.19932 18.5089 8.7754 18.3333 8.33337 18.3333ZM12.7667 10.7L10.3667 8.33333C10.0418 8.02612 9.6082 7.86056 9.16123 7.87306C8.71427 7.88556 8.29058 8.07511 7.98337 8.4C7.67617 8.72489 7.5106 9.15851 7.5231 9.60547C7.53561 10.0524 7.72515 10.4761 8.05004 10.7833L10.45 13.1C10.6111 13.2555 10.8018 13.377 11.0109 13.4572C11.2199 13.5373 11.443 13.5746 11.6667 13.5667C11.8912 13.5658 12.1132 13.5196 12.3194 13.4308C12.5257 13.342 12.7118 13.2125 12.8667 13.05C13.1642 12.7247 13.3207 12.2948 13.302 11.8543C13.2832 11.4139 13.0908 10.9989 12.7667 10.7ZM31.9834 8.41667C31.6711 8.10625 31.2487 7.93201 30.8084 7.93201C30.3681 7.93201 29.9456 8.10625 29.6334 8.41667L27.2334 10.7C26.923 11.0123 26.7487 11.4347 26.7487 11.875C26.7487 12.3153 26.923 12.7377 27.2334 13.05C27.3883 13.2125 27.5744 13.342 27.7806 13.4308C27.9868 13.5196 28.2089 13.5658 28.4334 13.5667C28.8625 13.565 29.2744 13.3978 29.5834 13.1L31.9834 10.7833C32.1396 10.6284 32.2636 10.4441 32.3482 10.241C32.4328 10.0379 32.4764 9.82002 32.4764 9.6C32.4764 9.37998 32.4328 9.16214 32.3482 8.95904C32.2636 8.75594 32.1396 8.5716 31.9834 8.41667Z" fill="#3CC2E0"/>
</g>
<defs>
<clipPath id="clip0_1019_103">
<rect width="40" height="40" fill="white"/>
</clipPath>
</defs>
</svg>
