<svg width="32" height="32" viewBox="0 0 32 32" fill="none" xmlns="http://www.w3.org/2000/svg">
<path d="M16.0001 2.66667C8.66675 2.66667 2.66675 8.66667 2.66675 16C2.66675 19.0667 3.73342 22 5.73342 24.4L3.06675 27.0667C2.53341 27.6 2.53341 28.4 3.06675 28.9333C3.33341 29.2 3.60008 29.3333 4.00008 29.3333H16.0001C23.3334 29.3333 29.3334 23.3333 29.3334 16C29.3334 8.66667 23.3334 2.66667 16.0001 2.66667ZM17.3334 20H9.33342C8.53341 20 8.00008 19.4667 8.00008 18.6667C8.00008 17.8667 8.53341 17.3333 9.33342 17.3333H17.3334C18.1334 17.3333 18.6667 17.8667 18.6667 18.6667C18.6667 19.4667 18.1334 20 17.3334 20ZM22.6667 14.6667H9.33342C8.53341 14.6667 8.00008 14.1333 8.00008 13.3333C8.00008 12.5333 8.53341 12 9.33342 12H22.6667C23.4667 12 24.0001 12.5333 24.0001 13.3333C24.0001 14.1333 23.4667 14.6667 22.6667 14.6667Z" fill="#A098AE"/>
</svg>
