<svg width="30" height="40" viewBox="0 0 30 40" fill="none" xmlns="http://www.w3.org/2000/svg">
<g clip-path="url(#clip0_1444_6)">
<path d="M25 5H5C3.67392 5 2.40215 5.52678 1.46447 6.46447C0.526784 7.40215 0 8.67392 0 10V30C0 31.3261 0.526784 32.5979 1.46447 33.5355C2.40215 34.4732 3.67392 35 5 35H25C26.3261 35 27.5979 34.4732 28.5355 33.5355C29.4732 32.5979 30 31.3261 30 30V10C30 8.67392 29.4732 7.40215 28.5355 6.46447C27.5979 5.52678 26.3261 5 25 5ZM22.1667 16.0167L14.55 26.0167C14.3947 26.2184 14.1953 26.3818 13.9671 26.4945C13.7389 26.6072 13.4879 26.6661 13.2333 26.6667C12.9802 26.668 12.73 26.6117 12.5019 26.502C12.2738 26.3922 12.0736 26.232 11.9167 26.0333L7.85 20.85C7.71539 20.6771 7.61616 20.4794 7.55797 20.2681C7.49978 20.0569 7.48377 19.8362 7.51086 19.6188C7.53794 19.4013 7.60759 19.1913 7.71582 19.0008C7.82406 18.8103 7.96876 18.6429 8.14167 18.5083C8.49087 18.2365 8.93376 18.1145 9.37291 18.1692C9.59035 18.1963 9.80033 18.2659 9.99086 18.3742C10.1814 18.4824 10.3487 18.6271 10.4833 18.8L13.2 22.2667L19.5 13.9333C19.6335 13.7582 19.8002 13.6112 19.9906 13.5005C20.1809 13.3898 20.3912 13.3177 20.6094 13.2883C20.8276 13.2589 21.0495 13.2728 21.2624 13.3291C21.4752 13.3854 21.6749 13.4832 21.85 13.6167C22.0251 13.7502 22.1722 13.9169 22.2829 14.1072C22.3935 14.2976 22.4656 14.5079 22.495 14.7261C22.5244 14.9443 22.5106 15.1662 22.4542 15.379C22.3979 15.5919 22.3002 15.7916 22.1667 15.9667V16.0167Z" fill="#A098AE"/>
</g>
<defs>
<clipPath id="clip0_1444_6">
<rect width="30" height="40" fill="white"/>
</clipPath>
</defs>
</svg>
