<svg width="32" height="25" viewBox="0 0 32 25" fill="none" xmlns="http://www.w3.org/2000/svg">
<g clip-path="url(#clip0_1444_50)">
<path d="M23.4925 24.625C24.115 24.625 24.6175 24.1225 24.6175 23.5V7.95248C24.6175 7.80252 24.535 7.53248 24.535 7.52501C24.475 7.38251 24.3925 7.26249 24.2875 7.15748L18.835 1.70501C18.73 1.6 18.61 1.51751 18.4675 1.45749C18.46 1.45749 18.1825 1.375 18.04 1.375H8.50751C7.88499 1.375 7.38251 1.87748 7.38251 2.5V23.5C7.38251 24.1225 7.88499 24.625 8.50751 24.625H23.4925V24.625ZM9.63251 3.62501H16.915V7.95248C16.915 8.57499 17.4175 9.07748 18.04 9.07748H22.3675V22.375H9.63251V3.62501Z" fill="#A098AE"/>
</g>
<defs>
<clipPath id="clip0_1444_50">
<rect width="32" height="24" fill="white" transform="translate(0 0.5)"/>
</clipPath>
</defs>
</svg>
