<svg width="32" height="32" viewBox="0 0 32 32" fill="none" xmlns="http://www.w3.org/2000/svg">
<path d="M28.2667 24.1333C27.3334 24 26.4 23.8667 25.3334 23.8667C22 23.8667 18.8 24.8 16 26.6667C13.2 24.9333 10 23.8667 6.66669 23.8667C5.73335 23.8667 4.66669 24 3.73335 24.1333C3.06669 24.2667 2.53335 24.9333 2.66669 25.7333C2.80002 26.5333 3.46669 26.9333 4.26669 26.8C5.06669 26.6667 5.86669 26.5333 6.66669 26.5333C9.73335 26.5333 12.6667 27.4667 15.2 29.3333C15.6 29.7333 16.2667 29.7333 16.8 29.3333C20 27.0667 24 26.1333 27.7334 26.8C28.4 26.9333 29.2 26.4 29.3334 25.7333C29.4667 24.9333 28.9334 24.2667 28.2667 24.1333ZM28.2667 2.8C27.3334 2.66667 26.4 2.53333 25.3334 2.53333C22 2.53333 18.8 3.46667 16 5.33333C13.2 3.46667 10 2.53333 6.66669 2.53333C5.73335 2.53333 4.66669 2.66667 3.73335 2.8C3.20002 2.8 2.66669 3.46667 2.66669 4V20C2.66669 20.8 3.20002 21.3333 4.00002 21.3333C4.13335 21.3333 4.13335 21.3333 4.26669 21.3333C5.06669 21.2 5.86669 21.0667 6.66669 21.0667C9.73335 21.0667 12.6667 22 15.2 23.8667C15.6 24.2667 16.2667 24.2667 16.8 23.8667C20 21.6 24 20.6667 27.7334 21.3333C28.4 21.4667 29.2 20.9333 29.3334 20.2667C29.3334 20.1333 29.3334 20.1333 29.3334 20V4C29.3334 3.46667 28.8 2.8 28.2667 2.8Z" fill="#A098AE"/>
</svg>
