<svg width="32" height="32" viewBox="0 0 32 32" fill="none" xmlns="http://www.w3.org/2000/svg">
<path d="M11.3333 15.3333C14.2666 15.3333 16.6666 12.9333 16.6666 10C16.6666 7.06667 14.2666 4.66667 11.3333 4.66667C8.39998 4.66667 5.99998 7.06667 5.99998 10C5.99998 12.9333 8.39998 15.3333 11.3333 15.3333ZM17.3333 14.1333C19.6 16 22.9333 15.6 24.8 13.3333C26.6666 11.0667 26.2666 7.73334 24 5.86667C23.0666 5.06667 21.8666 4.66667 20.6666 4.66667C19.4666 4.66667 18.2666 5.06667 17.3333 5.86667C19.6 7.73334 20 10.9333 18.1333 13.3333C18 13.6 17.6 13.8667 17.3333 14.1333ZM30.5333 25.8667C29.7333 20.9333 25.6 17.3333 20.6666 17.3333C19.4666 17.3333 18.4 17.4667 17.3333 17.8667C20.8 19.0667 23.3333 22.1333 23.8666 25.7333C24 26.4 23.4666 27.2 22.6666 27.2H22.5333H29.2C30 27.2 30.5333 26.6667 30.5333 25.8667C30.5333 26 30.5333 25.8667 30.5333 25.8667ZM11.3333 17.3333C6.39998 17.3333 2.13331 20.9333 1.46665 25.8667C1.33331 26.5333 1.86665 27.3333 2.66665 27.3333H2.79998H19.8666C20.6666 27.3333 21.2 26.8 21.2 26V25.8667C20.5333 20.9333 16.2666 17.3333 11.3333 17.3333Z" fill="#A098AE"/>
</svg>
